<?xml version="1.0" encoding="UTF-8" standalone="no"?>
<!DOCTYPE svg PUBLIC "-//W3C//DTD SVG 1.1//EN"
 "http://www.w3.org/Graphics/SVG/1.1/DTD/svg11.dtd">
<!-- Generated by graphviz version 2.26.3 (20100126.1600)
 -->
<!-- Title: controllers_diagram Pages: 1 -->
<svg width="748pt" height="710pt"
 viewBox="0.00 0.00 748.00 710.00" xmlns="http://www.w3.org/2000/svg" xmlns:xlink="http://www.w3.org/1999/xlink">
<g id="graph1" class="graph" transform="scale(1 1) rotate(0) translate(4 706)">
<title>controllers_diagram</title>
<polygon fill="white" stroke="white" points="-4,5 -4,-706 745,-706 745,5 -4,5"/>
<!-- _diagram_info -->
<g id="node1" class="node"><title>_diagram_info</title>
<text text-anchor="start" x="209" y="-578.3" font-family="Times Roman,serif" font-size="13.00">Controllers diagram</text>
<text text-anchor="start" x="209" y="-561.3" font-family="Times Roman,serif" font-size="13.00">Date: Jan 07 2012 &#45; 03:11</text>
<text text-anchor="start" x="209" y="-544.3" font-family="Times Roman,serif" font-size="13.00">Migration version: 20111007213243</text>
<text text-anchor="start" x="209" y="-527.3" font-family="Times Roman,serif" font-size="13.00">Generated by RailRoady 1.0.4</text>
<text text-anchor="start" x="209" y="-510.3" font-family="Times Roman,serif" font-size="13.00">http://railroady.prestonlee.com</text>
</g>
<!-- HomeController -->
<g id="node2" class="node"><title>HomeController</title>
<polyline fill="none" stroke="black" points="13,-376.5 114,-376.5 "/>
<path fill="none" stroke="black" d="M114,-376.5C120,-376.5 126,-382.5 126,-388.5"/>
<polyline fill="none" stroke="black" points="126,-388.5 126,-466.5 "/>
<path fill="none" stroke="black" d="M126,-466.5C126,-472.5 120,-478.5 114,-478.5"/>
<polyline fill="none" stroke="black" points="114,-478.5 13,-478.5 "/>
<path fill="none" stroke="black" d="M13,-478.5C7,-478.5 1,-472.5 1,-466.5"/>
<polyline fill="none" stroke="black" points="1,-466.5 1,-388.5 "/>
<path fill="none" stroke="black" d="M1,-388.5C1,-382.5 7,-376.5 13,-376.5"/>
<text text-anchor="middle" x="63.5" y="-461.9" font-family="Times Roman,serif" font-size="14.00">HomeController</text>
<polyline fill="none" stroke="black" points="1,-452.5 126,-452.5 "/>
<text text-anchor="start" x="9" y="-435.9" font-family="Times Roman,serif" font-size="14.00">index</text>
<polyline fill="none" stroke="black" points="1,-426.5 126,-426.5 "/>
<polyline fill="none" stroke="black" points="1,-402.5 126,-402.5 "/>
<text text-anchor="start" x="9" y="-385.9" font-family="Times Roman,serif" font-size="14.00">_layout</text>
</g>
<!-- LearnController -->
<g id="node3" class="node"><title>LearnController</title>
<polyline fill="none" stroke="black" points="38,-526.5 139,-526.5 "/>
<path fill="none" stroke="black" d="M139,-526.5C145,-526.5 151,-532.5 151,-538.5"/>
<polyline fill="none" stroke="black" points="151,-538.5 151,-688.5 "/>
<path fill="none" stroke="black" d="M151,-688.5C151,-694.5 145,-700.5 139,-700.5"/>
<polyline fill="none" stroke="black" points="139,-700.5 38,-700.5 "/>
<path fill="none" stroke="black" d="M38,-700.5C32,-700.5 26,-694.5 26,-688.5"/>
<polyline fill="none" stroke="black" points="26,-688.5 26,-538.5 "/>
<path fill="none" stroke="black" d="M26,-538.5C26,-532.5 32,-526.5 38,-526.5"/>
<text text-anchor="middle" x="88.5" y="-683.9" font-family="Times Roman,serif" font-size="14.00">LearnController</text>
<polyline fill="none" stroke="black" points="26,-674.5 151,-674.5 "/>
<text text-anchor="start" x="34" y="-657.9" font-family="Times Roman,serif" font-size="14.00">guess</text>
<text text-anchor="start" x="34" y="-639.9" font-family="Times Roman,serif" font-size="14.00">index</text>
<text text-anchor="start" x="34" y="-621.9" font-family="Times Roman,serif" font-size="14.00">next</text>
<text text-anchor="start" x="34" y="-603.9" font-family="Times Roman,serif" font-size="14.00">settings</text>
<polyline fill="none" stroke="black" points="26,-594.5 151,-594.5 "/>
<polyline fill="none" stroke="black" points="26,-570.5 151,-570.5 "/>
<text text-anchor="start" x="34" y="-553.9" font-family="Times Roman,serif" font-size="14.00">_layout</text>
<text text-anchor="start" x="34" y="-535.9" font-family="Times Roman,serif" font-size="14.00">set_correct</text>
</g>
<!-- ExpressionsController -->
<g id="node4" class="node"><title>ExpressionsController</title>
<polyline fill="none" stroke="black" points="188,-1.5 411,-1.5 "/>
<path fill="none" stroke="black" d="M411,-1.5C417,-1.5 423,-7.5 423,-13.5"/>
<polyline fill="none" stroke="black" points="423,-13.5 423,-451.5 "/>
<path fill="none" stroke="black" d="M423,-451.5C423,-457.5 417,-463.5 411,-463.5"/>
<polyline fill="none" stroke="black" points="411,-463.5 188,-463.5 "/>
<path fill="none" stroke="black" d="M188,-463.5C182,-463.5 176,-457.5 176,-451.5"/>
<polyline fill="none" stroke="black" points="176,-451.5 176,-13.5 "/>
<path fill="none" stroke="black" d="M176,-13.5C176,-7.5 182,-1.5 188,-1.5"/>
<text text-anchor="middle" x="299.5" y="-446.9" font-family="Times Roman,serif" font-size="14.00">ExpressionsController</text>
<polyline fill="none" stroke="black" points="176,-437.5 423,-437.5 "/>
<text text-anchor="start" x="184" y="-420.9" font-family="Times Roman,serif" font-size="14.00">_one_time_conditions_valid_106?</text>
<text text-anchor="start" x="184" y="-402.9" font-family="Times Roman,serif" font-size="14.00">_one_time_conditions_valid_108?</text>
<text text-anchor="start" x="184" y="-384.9" font-family="Times Roman,serif" font-size="14.00">_one_time_conditions_valid_112?</text>
<text text-anchor="start" x="184" y="-366.9" font-family="Times Roman,serif" font-size="14.00">_one_time_conditions_valid_116?</text>
<text text-anchor="start" x="184" y="-348.9" font-family="Times Roman,serif" font-size="14.00">_one_time_conditions_valid_120?</text>
<text text-anchor="start" x="184" y="-330.9" font-family="Times Roman,serif" font-size="14.00">_one_time_conditions_valid_124?</text>
<text text-anchor="start" x="184" y="-312.9" font-family="Times Roman,serif" font-size="14.00">_one_time_conditions_valid_128?</text>
<text text-anchor="start" x="184" y="-294.9" font-family="Times Roman,serif" font-size="14.00">_one_time_conditions_valid_132?</text>
<text text-anchor="start" x="184" y="-276.9" font-family="Times Roman,serif" font-size="14.00">_one_time_conditions_valid_136?</text>
<text text-anchor="start" x="184" y="-258.9" font-family="Times Roman,serif" font-size="14.00">_one_time_conditions_valid_138?</text>
<text text-anchor="start" x="184" y="-240.9" font-family="Times Roman,serif" font-size="14.00">_one_time_conditions_valid_140?</text>
<text text-anchor="start" x="184" y="-222.9" font-family="Times Roman,serif" font-size="14.00">_one_time_conditions_valid_142?</text>
<text text-anchor="start" x="184" y="-204.9" font-family="Times Roman,serif" font-size="14.00">create</text>
<text text-anchor="start" x="184" y="-186.9" font-family="Times Roman,serif" font-size="14.00">destroy</text>
<text text-anchor="start" x="184" y="-168.9" font-family="Times Roman,serif" font-size="14.00">edit</text>
<text text-anchor="start" x="184" y="-150.9" font-family="Times Roman,serif" font-size="14.00">load_data</text>
<text text-anchor="start" x="184" y="-132.9" font-family="Times Roman,serif" font-size="14.00">new</text>
<text text-anchor="start" x="184" y="-114.9" font-family="Times Roman,serif" font-size="14.00">show</text>
<text text-anchor="start" x="184" y="-96.9" font-family="Times Roman,serif" font-size="14.00">update</text>
<polyline fill="none" stroke="black" points="176,-87.5 423,-87.5 "/>
<polyline fill="none" stroke="black" points="176,-63.5 423,-63.5 "/>
<text text-anchor="start" x="184" y="-46.9" font-family="Times Roman,serif" font-size="14.00">_layout</text>
<text text-anchor="start" x="184" y="-28.9" font-family="Times Roman,serif" font-size="14.00">_run_process_action_callbacks</text>
<text text-anchor="start" x="184" y="-10.9" font-family="Times Roman,serif" font-size="14.00">set_image_from_params</text>
</g>
<!-- ApplicationController -->
<g id="node5" class="node"><title>ApplicationController</title>
<polyline fill="none" stroke="black" points="513,-451.5 727,-451.5 "/>
<path fill="none" stroke="black" d="M727,-451.5C733,-451.5 739,-457.5 739,-463.5"/>
<polyline fill="none" stroke="black" points="739,-463.5 739,-559.5 "/>
<path fill="none" stroke="black" d="M739,-559.5C739,-565.5 733,-571.5 727,-571.5"/>
<polyline fill="none" stroke="black" points="727,-571.5 513,-571.5 "/>
<path fill="none" stroke="black" d="M513,-571.5C507,-571.5 501,-565.5 501,-559.5"/>
<polyline fill="none" stroke="black" points="501,-559.5 501,-463.5 "/>
<path fill="none" stroke="black" d="M501,-463.5C501,-457.5 507,-451.5 513,-451.5"/>
<text text-anchor="middle" x="620" y="-554.9" font-family="Times Roman,serif" font-size="14.00">ApplicationController</text>
<polyline fill="none" stroke="black" points="501,-545.5 739,-545.5 "/>
<text text-anchor="start" x="509" y="-528.9" font-family="Times Roman,serif" font-size="14.00">_one_time_conditions_valid_66?</text>
<polyline fill="none" stroke="black" points="501,-519.5 739,-519.5 "/>
<polyline fill="none" stroke="black" points="501,-495.5 739,-495.5 "/>
<text text-anchor="start" x="509" y="-478.9" font-family="Times Roman,serif" font-size="14.00">_layout</text>
<text text-anchor="start" x="509" y="-460.9" font-family="Times Roman,serif" font-size="14.00">_run_process_action_callbacks</text>
</g>
<!-- CollectionsController -->
<g id="node6" class="node"><title>CollectionsController</title>
<polyline fill="none" stroke="black" points="488,-76.5 711,-76.5 "/>
<path fill="none" stroke="black" d="M711,-76.5C717,-76.5 723,-82.5 723,-88.5"/>
<polyline fill="none" stroke="black" points="723,-88.5 723,-402.5 "/>
<path fill="none" stroke="black" d="M723,-402.5C723,-408.5 717,-414.5 711,-414.5"/>
<polyline fill="none" stroke="black" points="711,-414.5 488,-414.5 "/>
<path fill="none" stroke="black" d="M488,-414.5C482,-414.5 476,-408.5 476,-402.5"/>
<polyline fill="none" stroke="black" points="476,-402.5 476,-88.5 "/>
<path fill="none" stroke="black" d="M476,-88.5C476,-82.5 482,-76.5 488,-76.5"/>
<text text-anchor="middle" x="599.5" y="-397.9" font-family="Times Roman,serif" font-size="14.00">CollectionsController</text>
<polyline fill="none" stroke="black" points="476,-388.5 723,-388.5 "/>
<text text-anchor="start" x="484" y="-371.9" font-family="Times Roman,serif" font-size="14.00">_one_time_conditions_valid_146?</text>
<text text-anchor="start" x="484" y="-353.9" font-family="Times Roman,serif" font-size="14.00">_one_time_conditions_valid_148?</text>
<text text-anchor="start" x="484" y="-335.9" font-family="Times Roman,serif" font-size="14.00">_one_time_conditions_valid_152?</text>
<text text-anchor="start" x="484" y="-317.9" font-family="Times Roman,serif" font-size="14.00">_one_time_conditions_valid_156?</text>
<text text-anchor="start" x="484" y="-299.9" font-family="Times Roman,serif" font-size="14.00">_one_time_conditions_valid_160?</text>
<text text-anchor="start" x="484" y="-281.9" font-family="Times Roman,serif" font-size="14.00">_one_time_conditions_valid_164?</text>
<text text-anchor="start" x="484" y="-263.9" font-family="Times Roman,serif" font-size="14.00">_one_time_conditions_valid_168?</text>
<text text-anchor="start" x="484" y="-245.9" font-family="Times Roman,serif" font-size="14.00">_one_time_conditions_valid_172?</text>
<text text-anchor="start" x="484" y="-227.9" font-family="Times Roman,serif" font-size="14.00">_one_time_conditions_valid_176?</text>
<text text-anchor="start" x="484" y="-209.9" font-family="Times Roman,serif" font-size="14.00">_one_time_conditions_valid_180?</text>
<text text-anchor="start" x="484" y="-191.9" font-family="Times Roman,serif" font-size="14.00">_one_time_conditions_valid_182?</text>
<text text-anchor="start" x="484" y="-173.9" font-family="Times Roman,serif" font-size="14.00">_one_time_conditions_valid_184?</text>
<text text-anchor="start" x="484" y="-155.9" font-family="Times Roman,serif" font-size="14.00">_one_time_conditions_valid_186?</text>
<polyline fill="none" stroke="black" points="476,-146.5 723,-146.5 "/>
<text text-anchor="start" x="484" y="-129.9" font-family="Times Roman,serif" font-size="14.00">before_create_save</text>
<polyline fill="none" stroke="black" points="476,-120.5 723,-120.5 "/>
<text text-anchor="start" x="484" y="-103.9" font-family="Times Roman,serif" font-size="14.00">_layout</text>
<text text-anchor="start" x="484" y="-85.9" font-family="Times Roman,serif" font-size="14.00">_run_process_action_callbacks</text>
</g>
</g>
</svg>
