<?xml version="1.0" encoding="UTF-8" standalone="no"?>
<!DOCTYPE svg PUBLIC "-//W3C//DTD SVG 1.1//EN"
 "http://www.w3.org/Graphics/SVG/1.1/DTD/svg11.dtd">
<!-- Generated by graphviz version 2.26.3 (20100126.1600)
 -->
<!-- Title: controllers_diagram Pages: 1 -->
<svg width="1172pt" height="508pt"
 viewBox="0.00 0.00 1172.00 508.00" xmlns="http://www.w3.org/2000/svg" xmlns:xlink="http://www.w3.org/1999/xlink">
<g id="graph1" class="graph" transform="scale(1 1) rotate(0) translate(4 504)">
<title>controllers_diagram</title>
<polygon fill="white" stroke="white" points="-4,5 -4,-504 1169,-504 1169,5 -4,5"/>
<!-- HomeController -->
<g id="node1" class="node"><title>HomeController</title>
<polyline fill="none" stroke="black" points="11.5,-199 112.5,-199 "/>
<path fill="none" stroke="black" d="M112.5,-199C118.5,-199 124.5,-205 124.5,-211"/>
<polyline fill="none" stroke="black" points="124.5,-211 124.5,-289 "/>
<path fill="none" stroke="black" d="M124.5,-289C124.5,-295 118.5,-301 112.5,-301"/>
<polyline fill="none" stroke="black" points="112.5,-301 11.5,-301 "/>
<path fill="none" stroke="black" d="M11.5,-301C5.5,-301 -0.5,-295 -0.5,-289"/>
<polyline fill="none" stroke="black" points="-0.5,-289 -0.5,-211 "/>
<path fill="none" stroke="black" d="M-0.5,-211C-0.5,-205 5.5,-199 11.5,-199"/>
<text text-anchor="middle" x="62" y="-284.4" font-family="Times Roman,serif" font-size="14.00">HomeController</text>
<polyline fill="none" stroke="black" points="-0.5,-275 124.5,-275 "/>
<text text-anchor="start" x="7.5" y="-258.4" font-family="Times Roman,serif" font-size="14.00">index</text>
<polyline fill="none" stroke="black" points="-0.5,-249 124.5,-249 "/>
<polyline fill="none" stroke="black" points="-0.5,-225 124.5,-225 "/>
<text text-anchor="start" x="7.5" y="-208.4" font-family="Times Roman,serif" font-size="14.00">_layout</text>
</g>
<!-- LearnController -->
<g id="node2" class="node"><title>LearnController</title>
<polyline fill="none" stroke="black" points="154,-136 368,-136 "/>
<path fill="none" stroke="black" d="M368,-136C374,-136 380,-142 380,-148"/>
<polyline fill="none" stroke="black" points="380,-148 380,-352 "/>
<path fill="none" stroke="black" d="M380,-352C380,-358 374,-364 368,-364"/>
<polyline fill="none" stroke="black" points="368,-364 154,-364 "/>
<path fill="none" stroke="black" d="M154,-364C148,-364 142,-358 142,-352"/>
<polyline fill="none" stroke="black" points="142,-352 142,-148 "/>
<path fill="none" stroke="black" d="M142,-148C142,-142 148,-136 154,-136"/>
<text text-anchor="middle" x="261" y="-347.4" font-family="Times Roman,serif" font-size="14.00">LearnController</text>
<polyline fill="none" stroke="black" points="142,-338 380,-338 "/>
<text text-anchor="start" x="150" y="-321.4" font-family="Times Roman,serif" font-size="14.00">_one_time_conditions_valid_68?</text>
<text text-anchor="start" x="150" y="-303.4" font-family="Times Roman,serif" font-size="14.00">guess</text>
<text text-anchor="start" x="150" y="-285.4" font-family="Times Roman,serif" font-size="14.00">index</text>
<text text-anchor="start" x="150" y="-267.4" font-family="Times Roman,serif" font-size="14.00">next</text>
<text text-anchor="start" x="150" y="-249.4" font-family="Times Roman,serif" font-size="14.00">settings</text>
<polyline fill="none" stroke="black" points="142,-240 380,-240 "/>
<polyline fill="none" stroke="black" points="142,-216 380,-216 "/>
<text text-anchor="start" x="150" y="-199.4" font-family="Times Roman,serif" font-size="14.00">_layout</text>
<text text-anchor="start" x="150" y="-181.4" font-family="Times Roman,serif" font-size="14.00">_run_process_action_callbacks</text>
<text text-anchor="start" x="150" y="-163.4" font-family="Times Roman,serif" font-size="14.00">set_attributes_settings</text>
<text text-anchor="start" x="150" y="-145.4" font-family="Times Roman,serif" font-size="14.00">set_correct</text>
</g>
<!-- ExpressionsController -->
<g id="node3" class="node"><title>ExpressionsController</title>
<polyline fill="none" stroke="black" points="409.5,-1 632.5,-1 "/>
<path fill="none" stroke="black" d="M632.5,-1C638.5,-1 644.5,-7 644.5,-13"/>
<polyline fill="none" stroke="black" points="644.5,-13 644.5,-487 "/>
<path fill="none" stroke="black" d="M644.5,-487C644.5,-493 638.5,-499 632.5,-499"/>
<polyline fill="none" stroke="black" points="632.5,-499 409.5,-499 "/>
<path fill="none" stroke="black" d="M409.5,-499C403.5,-499 397.5,-493 397.5,-487"/>
<polyline fill="none" stroke="black" points="397.5,-487 397.5,-13 "/>
<path fill="none" stroke="black" d="M397.5,-13C397.5,-7 403.5,-1 409.5,-1"/>
<text text-anchor="middle" x="521" y="-482.4" font-family="Times Roman,serif" font-size="14.00">ExpressionsController</text>
<polyline fill="none" stroke="black" points="397.5,-473 644.5,-473 "/>
<text text-anchor="start" x="405.5" y="-456.4" font-family="Times Roman,serif" font-size="14.00">_one_time_conditions_valid_108?</text>
<text text-anchor="start" x="405.5" y="-438.4" font-family="Times Roman,serif" font-size="14.00">_one_time_conditions_valid_110?</text>
<text text-anchor="start" x="405.5" y="-420.4" font-family="Times Roman,serif" font-size="14.00">_one_time_conditions_valid_114?</text>
<text text-anchor="start" x="405.5" y="-402.4" font-family="Times Roman,serif" font-size="14.00">_one_time_conditions_valid_118?</text>
<text text-anchor="start" x="405.5" y="-384.4" font-family="Times Roman,serif" font-size="14.00">_one_time_conditions_valid_122?</text>
<text text-anchor="start" x="405.5" y="-366.4" font-family="Times Roman,serif" font-size="14.00">_one_time_conditions_valid_126?</text>
<text text-anchor="start" x="405.5" y="-348.4" font-family="Times Roman,serif" font-size="14.00">_one_time_conditions_valid_130?</text>
<text text-anchor="start" x="405.5" y="-330.4" font-family="Times Roman,serif" font-size="14.00">_one_time_conditions_valid_134?</text>
<text text-anchor="start" x="405.5" y="-312.4" font-family="Times Roman,serif" font-size="14.00">_one_time_conditions_valid_138?</text>
<text text-anchor="start" x="405.5" y="-294.4" font-family="Times Roman,serif" font-size="14.00">_one_time_conditions_valid_142?</text>
<text text-anchor="start" x="405.5" y="-276.4" font-family="Times Roman,serif" font-size="14.00">_one_time_conditions_valid_144?</text>
<text text-anchor="start" x="405.5" y="-258.4" font-family="Times Roman,serif" font-size="14.00">_one_time_conditions_valid_146?</text>
<text text-anchor="start" x="405.5" y="-240.4" font-family="Times Roman,serif" font-size="14.00">_one_time_conditions_valid_148?</text>
<text text-anchor="start" x="405.5" y="-222.4" font-family="Times Roman,serif" font-size="14.00">create</text>
<text text-anchor="start" x="405.5" y="-204.4" font-family="Times Roman,serif" font-size="14.00">destroy</text>
<text text-anchor="start" x="405.5" y="-186.4" font-family="Times Roman,serif" font-size="14.00">edit</text>
<text text-anchor="start" x="405.5" y="-168.4" font-family="Times Roman,serif" font-size="14.00">index</text>
<text text-anchor="start" x="405.5" y="-150.4" font-family="Times Roman,serif" font-size="14.00">load_data</text>
<text text-anchor="start" x="405.5" y="-132.4" font-family="Times Roman,serif" font-size="14.00">new</text>
<text text-anchor="start" x="405.5" y="-114.4" font-family="Times Roman,serif" font-size="14.00">show</text>
<text text-anchor="start" x="405.5" y="-96.4" font-family="Times Roman,serif" font-size="14.00">update</text>
<polyline fill="none" stroke="black" points="397.5,-87 644.5,-87 "/>
<polyline fill="none" stroke="black" points="397.5,-63 644.5,-63 "/>
<text text-anchor="start" x="405.5" y="-46.4" font-family="Times Roman,serif" font-size="14.00">_layout</text>
<text text-anchor="start" x="405.5" y="-28.4" font-family="Times Roman,serif" font-size="14.00">_run_process_action_callbacks</text>
<text text-anchor="start" x="405.5" y="-10.4" font-family="Times Roman,serif" font-size="14.00">set_image_from_params</text>
</g>
<!-- ApplicationController -->
<g id="node4" class="node"><title>ApplicationController</title>
<polyline fill="none" stroke="black" points="674,-190 888,-190 "/>
<path fill="none" stroke="black" d="M888,-190C894,-190 900,-196 900,-202"/>
<polyline fill="none" stroke="black" points="900,-202 900,-298 "/>
<path fill="none" stroke="black" d="M900,-298C900,-304 894,-310 888,-310"/>
<polyline fill="none" stroke="black" points="888,-310 674,-310 "/>
<path fill="none" stroke="black" d="M674,-310C668,-310 662,-304 662,-298"/>
<polyline fill="none" stroke="black" points="662,-298 662,-202 "/>
<path fill="none" stroke="black" d="M662,-202C662,-196 668,-190 674,-190"/>
<text text-anchor="middle" x="781" y="-293.4" font-family="Times Roman,serif" font-size="14.00">ApplicationController</text>
<polyline fill="none" stroke="black" points="662,-284 900,-284 "/>
<text text-anchor="start" x="670" y="-267.4" font-family="Times Roman,serif" font-size="14.00">_one_time_conditions_valid_66?</text>
<polyline fill="none" stroke="black" points="662,-258 900,-258 "/>
<polyline fill="none" stroke="black" points="662,-234 900,-234 "/>
<text text-anchor="start" x="670" y="-217.4" font-family="Times Roman,serif" font-size="14.00">_layout</text>
<text text-anchor="start" x="670" y="-199.4" font-family="Times Roman,serif" font-size="14.00">_run_process_action_callbacks</text>
</g>
<!-- CollectionsController -->
<g id="node5" class="node"><title>CollectionsController</title>
<polyline fill="none" stroke="black" points="929.5,-81 1152.5,-81 "/>
<path fill="none" stroke="black" d="M1152.5,-81C1158.5,-81 1164.5,-87 1164.5,-93"/>
<polyline fill="none" stroke="black" points="1164.5,-93 1164.5,-407 "/>
<path fill="none" stroke="black" d="M1164.5,-407C1164.5,-413 1158.5,-419 1152.5,-419"/>
<polyline fill="none" stroke="black" points="1152.5,-419 929.5,-419 "/>
<path fill="none" stroke="black" d="M929.5,-419C923.5,-419 917.5,-413 917.5,-407"/>
<polyline fill="none" stroke="black" points="917.5,-407 917.5,-93 "/>
<path fill="none" stroke="black" d="M917.5,-93C917.5,-87 923.5,-81 929.5,-81"/>
<text text-anchor="middle" x="1041" y="-402.4" font-family="Times Roman,serif" font-size="14.00">CollectionsController</text>
<polyline fill="none" stroke="black" points="917.5,-393 1164.5,-393 "/>
<text text-anchor="start" x="925.5" y="-376.4" font-family="Times Roman,serif" font-size="14.00">_one_time_conditions_valid_152?</text>
<text text-anchor="start" x="925.5" y="-358.4" font-family="Times Roman,serif" font-size="14.00">_one_time_conditions_valid_154?</text>
<text text-anchor="start" x="925.5" y="-340.4" font-family="Times Roman,serif" font-size="14.00">_one_time_conditions_valid_158?</text>
<text text-anchor="start" x="925.5" y="-322.4" font-family="Times Roman,serif" font-size="14.00">_one_time_conditions_valid_162?</text>
<text text-anchor="start" x="925.5" y="-304.4" font-family="Times Roman,serif" font-size="14.00">_one_time_conditions_valid_166?</text>
<text text-anchor="start" x="925.5" y="-286.4" font-family="Times Roman,serif" font-size="14.00">_one_time_conditions_valid_170?</text>
<text text-anchor="start" x="925.5" y="-268.4" font-family="Times Roman,serif" font-size="14.00">_one_time_conditions_valid_174?</text>
<text text-anchor="start" x="925.5" y="-250.4" font-family="Times Roman,serif" font-size="14.00">_one_time_conditions_valid_178?</text>
<text text-anchor="start" x="925.5" y="-232.4" font-family="Times Roman,serif" font-size="14.00">_one_time_conditions_valid_182?</text>
<text text-anchor="start" x="925.5" y="-214.4" font-family="Times Roman,serif" font-size="14.00">_one_time_conditions_valid_186?</text>
<text text-anchor="start" x="925.5" y="-196.4" font-family="Times Roman,serif" font-size="14.00">_one_time_conditions_valid_188?</text>
<text text-anchor="start" x="925.5" y="-178.4" font-family="Times Roman,serif" font-size="14.00">_one_time_conditions_valid_190?</text>
<text text-anchor="start" x="925.5" y="-160.4" font-family="Times Roman,serif" font-size="14.00">_one_time_conditions_valid_192?</text>
<polyline fill="none" stroke="black" points="917.5,-151 1164.5,-151 "/>
<text text-anchor="start" x="925.5" y="-134.4" font-family="Times Roman,serif" font-size="14.00">before_create_save</text>
<polyline fill="none" stroke="black" points="917.5,-125 1164.5,-125 "/>
<text text-anchor="start" x="925.5" y="-108.4" font-family="Times Roman,serif" font-size="14.00">_layout</text>
<text text-anchor="start" x="925.5" y="-90.4" font-family="Times Roman,serif" font-size="14.00">_run_process_action_callbacks</text>
</g>
</g>
</svg>
