<?xml version="1.0" encoding="UTF-8" standalone="no"?>
<!DOCTYPE svg PUBLIC "-//W3C//DTD SVG 1.1//EN"
 "http://www.w3.org/Graphics/SVG/1.1/DTD/svg11.dtd">
<!-- Generated by graphviz version 2.26.3 (20100126.1600)
 -->
<!-- Title: models_diagram Pages: 1 -->
<svg width="574pt" height="250pt"
 viewBox="0.00 0.00 574.00 250.00" xmlns="http://www.w3.org/2000/svg" xmlns:xlink="http://www.w3.org/1999/xlink">
<g id="graph1" class="graph" transform="scale(1 1) rotate(0) translate(4 246)">
<title>models_diagram</title>
<polygon fill="white" stroke="white" points="-4,5 -4,-246 571,-246 571,5 -4,5"/>
<!-- _diagram_info -->
<g id="node1" class="node"><title>_diagram_info</title>
<text text-anchor="start" x="8" y="-225.8" font-family="Times Roman,serif" font-size="13.00">Models diagram</text>
<text text-anchor="start" x="8" y="-208.8" font-family="Times Roman,serif" font-size="13.00">Date: Jan 07 2012 &#45; 03:11</text>
<text text-anchor="start" x="8" y="-191.8" font-family="Times Roman,serif" font-size="13.00">Migration version: 20111007213243</text>
<text text-anchor="start" x="8" y="-174.8" font-family="Times Roman,serif" font-size="13.00">Generated by RailRoady 1.0.4</text>
<text text-anchor="start" x="8" y="-157.8" font-family="Times Roman,serif" font-size="13.00">http://railroady.prestonlee.com</text>
</g>
<!-- Expression -->
<g id="node2" class="node"><title>Expression</title>
<ellipse fill="none" stroke="black" cx="302" cy="-19" rx="63.8479" ry="18.3848"/>
<text text-anchor="middle" x="302" y="-15.4" font-family="Times Roman,serif" font-size="14.00">Expression</text>
</g>
<!-- GoogleImage -->
<g id="node3" class="node"><title>GoogleImage</title>
<polygon fill="none" stroke="black" points="460,-213 354,-213 354,-177 460,-177 460,-213"/>
<text text-anchor="middle" x="407" y="-191.4" font-family="Times Roman,serif" font-size="14.00">GoogleImage</text>
</g>
<!-- Dictionary -->
<g id="node4" class="node"><title>Dictionary</title>
<polygon fill="none" stroke="black" points="566,-213 478,-213 478,-177 566,-177 566,-213"/>
<text text-anchor="middle" x="522" y="-191.4" font-family="Times Roman,serif" font-size="14.00">Dictionary</text>
</g>
<!-- User -->
<g id="node5" class="node"><title>User</title>
<ellipse fill="none" stroke="black" cx="302" cy="-195" rx="33.9411" ry="18.3848"/>
<text text-anchor="middle" x="302" y="-191.4" font-family="Times Roman,serif" font-size="14.00">User</text>
</g>
<!-- Collection -->
<g id="node6" class="node"><title>Collection</title>
<ellipse fill="none" stroke="black" cx="302" cy="-93" rx="58.8978" ry="18.3848"/>
<text text-anchor="middle" x="302" y="-89.4" font-family="Times Roman,serif" font-size="14.00">Collection</text>
</g>
<!-- User&#45;&gt;Collection -->
<g id="edge2" class="edge"><title>User&#45;&gt;Collection</title>
<path fill="none" stroke="black" d="M302,-168.015C302,-153.835 302,-136.445 302,-121.98"/>
<ellipse fill="none" stroke="black" cx="302" cy="-172.292" rx="4" ry="4"/>
<polygon fill="black" stroke="black" points="302,-121.59 306.5,-111.59 302,-116.59 302,-111.59 302,-111.59 302,-111.59 302,-116.59 297.5,-111.59 302,-121.59 302,-121.59"/>
</g>
<!-- Collection&#45;&gt;Expression -->
<g id="edge4" class="edge"><title>Collection&#45;&gt;Expression</title>
<path fill="none" stroke="black" d="M302,-66.309C302,-60.3769 302,-54.0606 302,-48.0396"/>
<ellipse fill="none" stroke="black" cx="302" cy="-70.3267" rx="4" ry="4"/>
<polygon fill="black" stroke="black" points="302,-47.6674 306.5,-37.6673 302,-42.6674 302,-37.6674 302,-37.6674 302,-37.6674 302,-42.6674 297.5,-37.6674 302,-47.6674 302,-47.6674"/>
</g>
</g>
</svg>
