<?xml version="1.0" encoding="UTF-8" standalone="no"?>
<!DOCTYPE svg PUBLIC "-//W3C//DTD SVG 1.1//EN"
 "http://www.w3.org/Graphics/SVG/1.1/DTD/svg11.dtd">
<!-- Generated by graphviz version 2.26.3 (20100126.1600)
 -->
<!-- Title: models_diagram Pages: 1 -->
<svg width="492pt" height="656pt"
 viewBox="0.00 0.00 492.00 656.00" xmlns="http://www.w3.org/2000/svg" xmlns:xlink="http://www.w3.org/1999/xlink">
<g id="graph1" class="graph" transform="scale(1 1) rotate(0) translate(4 652)">
<title>models_diagram</title>
<polygon fill="white" stroke="white" points="-4,5 -4,-652 489,-652 489,5 -4,5"/>
<!-- Expression -->
<g id="node1" class="node"><title>Expression</title>
<polyline fill="none" stroke="black" points="32,-1 222,-1 "/>
<path fill="none" stroke="black" d="M222,-1C228,-1 234,-7 234,-13"/>
<polyline fill="none" stroke="black" points="234,-13 234,-221 "/>
<path fill="none" stroke="black" d="M234,-221C234,-227 228,-233 222,-233"/>
<polyline fill="none" stroke="black" points="222,-233 32,-233 "/>
<path fill="none" stroke="black" d="M32,-233C26,-233 20,-227 20,-221"/>
<polyline fill="none" stroke="black" points="20,-221 20,-13 "/>
<path fill="none" stroke="black" d="M20,-13C20,-7 26,-1 32,-1"/>
<text text-anchor="middle" x="127" y="-216.4" font-family="Times Roman,serif" font-size="14.00">Expression</text>
<polyline fill="none" stroke="black" points="20,-207 234,-207 "/>
<text text-anchor="start" x="28" y="-190.4" font-family="Times Roman,serif" font-size="14.00">name :string</text>
<text text-anchor="start" x="28" y="-172.4" font-family="Times Roman,serif" font-size="14.00">definition :text</text>
<text text-anchor="start" x="28" y="-154.4" font-family="Times Roman,serif" font-size="14.00">notes :string</text>
<text text-anchor="start" x="28" y="-136.4" font-family="Times Roman,serif" font-size="14.00">created_at :datetime</text>
<text text-anchor="start" x="28" y="-118.4" font-family="Times Roman,serif" font-size="14.00">updated_at :datetime</text>
<text text-anchor="start" x="28" y="-100.4" font-family="Times Roman,serif" font-size="14.00">image_file_name :string</text>
<text text-anchor="start" x="28" y="-82.4" font-family="Times Roman,serif" font-size="14.00">image_content_type :string</text>
<text text-anchor="start" x="28" y="-64.4" font-family="Times Roman,serif" font-size="14.00">image_file_size :integer</text>
<text text-anchor="start" x="28" y="-46.4" font-family="Times Roman,serif" font-size="14.00">image_updated_at :datetime</text>
<text text-anchor="start" x="28" y="-28.4" font-family="Times Roman,serif" font-size="14.00">synonyms :text</text>
<text text-anchor="start" x="28" y="-10.4" font-family="Times Roman,serif" font-size="14.00">examples :text</text>
</g>
<!-- GoogleImage -->
<g id="node2" class="node"><title>GoogleImage</title>
<polygon fill="none" stroke="black" points="271.5,-505 271.5,-557 378.5,-557 378.5,-505 271.5,-505"/>
<text text-anchor="middle" x="325" y="-540.4" font-family="Times Roman,serif" font-size="14.00">GoogleImage</text>
<polyline fill="none" stroke="black" points="271.5,-531 378.5,-531 "/>
<text text-anchor="middle" x="325" y="-514.4" font-family="Times Roman,serif" font-size="14.00"> </text>
</g>
<!-- Dictionary -->
<g id="node3" class="node"><title>Dictionary</title>
<polygon fill="none" stroke="black" points="396,-505 396,-557 484,-557 484,-505 396,-505"/>
<text text-anchor="middle" x="440" y="-540.4" font-family="Times Roman,serif" font-size="14.00">Dictionary</text>
<polyline fill="none" stroke="black" points="396,-531 484,-531 "/>
<text text-anchor="middle" x="440" y="-514.4" font-family="Times Roman,serif" font-size="14.00"> </text>
</g>
<!-- User -->
<g id="node4" class="node"><title>User</title>
<polyline fill="none" stroke="black" points="12,-415 242,-415 "/>
<path fill="none" stroke="black" d="M242,-415C248,-415 254,-421 254,-427"/>
<polyline fill="none" stroke="black" points="254,-427 254,-635 "/>
<path fill="none" stroke="black" d="M254,-635C254,-641 248,-647 242,-647"/>
<polyline fill="none" stroke="black" points="242,-647 12,-647 "/>
<path fill="none" stroke="black" d="M12,-647C6,-647 0,-641 0,-635"/>
<polyline fill="none" stroke="black" points="0,-635 0,-427 "/>
<path fill="none" stroke="black" d="M0,-427C0,-421 6,-415 12,-415"/>
<text text-anchor="middle" x="127" y="-630.4" font-family="Times Roman,serif" font-size="14.00">User</text>
<polyline fill="none" stroke="black" points="0,-621 254,-621 "/>
<text text-anchor="start" x="8" y="-604.4" font-family="Times Roman,serif" font-size="14.00">email :string</text>
<text text-anchor="start" x="8" y="-586.4" font-family="Times Roman,serif" font-size="14.00">encrypted_password :string</text>
<text text-anchor="start" x="8" y="-568.4" font-family="Times Roman,serif" font-size="14.00">reset_password_token :string</text>
<text text-anchor="start" x="8" y="-550.4" font-family="Times Roman,serif" font-size="14.00">reset_password_sent_at :datetime</text>
<text text-anchor="start" x="8" y="-532.4" font-family="Times Roman,serif" font-size="14.00">remember_created_at :datetime</text>
<text text-anchor="start" x="8" y="-514.4" font-family="Times Roman,serif" font-size="14.00">current_sign_in_at :datetime</text>
<text text-anchor="start" x="8" y="-496.4" font-family="Times Roman,serif" font-size="14.00">last_sign_in_at :datetime</text>
<text text-anchor="start" x="8" y="-478.4" font-family="Times Roman,serif" font-size="14.00">current_sign_in_ip :string</text>
<text text-anchor="start" x="8" y="-460.4" font-family="Times Roman,serif" font-size="14.00">last_sign_in_ip :string</text>
<text text-anchor="start" x="8" y="-442.4" font-family="Times Roman,serif" font-size="14.00">created_at :datetime</text>
<text text-anchor="start" x="8" y="-424.4" font-family="Times Roman,serif" font-size="14.00">updated_at :datetime</text>
</g>
<!-- Collection -->
<g id="node5" class="node"><title>Collection</title>
<polyline fill="none" stroke="black" points="56.5,-271 197.5,-271 "/>
<path fill="none" stroke="black" d="M197.5,-271C203.5,-271 209.5,-277 209.5,-283"/>
<polyline fill="none" stroke="black" points="209.5,-283 209.5,-365 "/>
<path fill="none" stroke="black" d="M209.5,-365C209.5,-371 203.5,-377 197.5,-377"/>
<polyline fill="none" stroke="black" points="197.5,-377 56.5,-377 "/>
<path fill="none" stroke="black" d="M56.5,-377C50.5,-377 44.5,-371 44.5,-365"/>
<polyline fill="none" stroke="black" points="44.5,-365 44.5,-283 "/>
<path fill="none" stroke="black" d="M44.5,-283C44.5,-277 50.5,-271 56.5,-271"/>
<text text-anchor="middle" x="127" y="-360.4" font-family="Times Roman,serif" font-size="14.00">Collection</text>
<polyline fill="none" stroke="black" points="44.5,-351 209.5,-351 "/>
<text text-anchor="start" x="52.5" y="-334.4" font-family="Times Roman,serif" font-size="14.00">name :string</text>
<text text-anchor="start" x="52.5" y="-316.4" font-family="Times Roman,serif" font-size="14.00">description :text</text>
<text text-anchor="start" x="52.5" y="-298.4" font-family="Times Roman,serif" font-size="14.00">created_at :datetime</text>
<text text-anchor="start" x="52.5" y="-280.4" font-family="Times Roman,serif" font-size="14.00">updated_at :datetime</text>
</g>
<!-- User&#45;&gt;Collection -->
<g id="edge2" class="edge"><title>User&#45;&gt;Collection</title>
<path fill="none" stroke="black" d="M127,-406.557C127,-400.019 127,-393.598 127,-387.404"/>
<ellipse fill="none" stroke="black" cx="127" cy="-410.793" rx="4" ry="4"/>
<polygon fill="black" stroke="black" points="127,-387.213 131.5,-377.213 127,-382.213 127,-377.213 127,-377.213 127,-377.213 127,-382.213 122.5,-377.213 127,-387.213 127,-387.213"/>
</g>
<!-- Collection&#45;&gt;Expression -->
<g id="edge4" class="edge"><title>Collection&#45;&gt;Expression</title>
<path fill="none" stroke="black" d="M127,-262.816C127,-256.616 127,-250.172 127,-243.597"/>
<ellipse fill="none" stroke="black" cx="127" cy="-266.961" rx="4" ry="4"/>
<polygon fill="black" stroke="black" points="127,-243.173 131.5,-233.173 127,-238.173 127,-233.173 127,-233.173 127,-233.173 127,-238.173 122.5,-233.173 127,-243.173 127,-243.173"/>
</g>
</g>
</svg>
