<?xml version="1.0" encoding="UTF-8" standalone="no"?>
<!DOCTYPE svg PUBLIC "-//W3C//DTD SVG 1.1//EN"
 "http://www.w3.org/Graphics/SVG/1.1/DTD/svg11.dtd">
<!-- Generated by graphviz version 2.26.3 (20100126.1600)
 -->
<!-- Title: models_diagram Pages: 1 -->
<svg width="760pt" height="656pt"
 viewBox="0.00 0.00 760.00 656.00" xmlns="http://www.w3.org/2000/svg" xmlns:xlink="http://www.w3.org/1999/xlink">
<g id="graph1" class="graph" transform="scale(1 1) rotate(0) translate(4 652)">
<title>models_diagram</title>
<polygon fill="white" stroke="white" points="-4,5 -4,-652 757,-652 757,5 -4,5"/>
<!-- _diagram_info -->
<g id="node1" class="node"><title>_diagram_info</title>
<text text-anchor="start" x="8" y="-561.8" font-family="Times Roman,serif" font-size="13.00">Models diagram</text>
<text text-anchor="start" x="8" y="-544.8" font-family="Times Roman,serif" font-size="13.00">Date: Jan 07 2012 &#45; 03:11</text>
<text text-anchor="start" x="8" y="-527.8" font-family="Times Roman,serif" font-size="13.00">Migration version: 20111007213243</text>
<text text-anchor="start" x="8" y="-510.8" font-family="Times Roman,serif" font-size="13.00">Generated by RailRoady 1.0.4</text>
<text text-anchor="start" x="8" y="-493.8" font-family="Times Roman,serif" font-size="13.00">http://railroady.prestonlee.com</text>
</g>
<!-- Expression -->
<g id="node2" class="node"><title>Expression</title>
<polyline fill="none" stroke="black" points="300,-1 490,-1 "/>
<path fill="none" stroke="black" d="M490,-1C496,-1 502,-7 502,-13"/>
<polyline fill="none" stroke="black" points="502,-13 502,-221 "/>
<path fill="none" stroke="black" d="M502,-221C502,-227 496,-233 490,-233"/>
<polyline fill="none" stroke="black" points="490,-233 300,-233 "/>
<path fill="none" stroke="black" d="M300,-233C294,-233 288,-227 288,-221"/>
<polyline fill="none" stroke="black" points="288,-221 288,-13 "/>
<path fill="none" stroke="black" d="M288,-13C288,-7 294,-1 300,-1"/>
<text text-anchor="middle" x="395" y="-216.4" font-family="Times Roman,serif" font-size="14.00">Expression</text>
<polyline fill="none" stroke="black" points="288,-207 502,-207 "/>
<text text-anchor="start" x="296" y="-190.4" font-family="Times Roman,serif" font-size="14.00">name :string</text>
<text text-anchor="start" x="296" y="-172.4" font-family="Times Roman,serif" font-size="14.00">definition :text</text>
<text text-anchor="start" x="296" y="-154.4" font-family="Times Roman,serif" font-size="14.00">notes :string</text>
<text text-anchor="start" x="296" y="-136.4" font-family="Times Roman,serif" font-size="14.00">created_at :datetime</text>
<text text-anchor="start" x="296" y="-118.4" font-family="Times Roman,serif" font-size="14.00">updated_at :datetime</text>
<text text-anchor="start" x="296" y="-100.4" font-family="Times Roman,serif" font-size="14.00">image_file_name :string</text>
<text text-anchor="start" x="296" y="-82.4" font-family="Times Roman,serif" font-size="14.00">image_content_type :string</text>
<text text-anchor="start" x="296" y="-64.4" font-family="Times Roman,serif" font-size="14.00">image_file_size :integer</text>
<text text-anchor="start" x="296" y="-46.4" font-family="Times Roman,serif" font-size="14.00">image_updated_at :datetime</text>
<text text-anchor="start" x="296" y="-28.4" font-family="Times Roman,serif" font-size="14.00">synonyms :text</text>
<text text-anchor="start" x="296" y="-10.4" font-family="Times Roman,serif" font-size="14.00">examples :text</text>
</g>
<!-- GoogleImage -->
<g id="node3" class="node"><title>GoogleImage</title>
<polygon fill="none" stroke="black" points="539.5,-505 539.5,-557 646.5,-557 646.5,-505 539.5,-505"/>
<text text-anchor="middle" x="593" y="-540.4" font-family="Times Roman,serif" font-size="14.00">GoogleImage</text>
<polyline fill="none" stroke="black" points="539.5,-531 646.5,-531 "/>
<text text-anchor="middle" x="593" y="-514.4" font-family="Times Roman,serif" font-size="14.00"> </text>
</g>
<!-- Dictionary -->
<g id="node4" class="node"><title>Dictionary</title>
<polygon fill="none" stroke="black" points="664,-505 664,-557 752,-557 752,-505 664,-505"/>
<text text-anchor="middle" x="708" y="-540.4" font-family="Times Roman,serif" font-size="14.00">Dictionary</text>
<polyline fill="none" stroke="black" points="664,-531 752,-531 "/>
<text text-anchor="middle" x="708" y="-514.4" font-family="Times Roman,serif" font-size="14.00"> </text>
</g>
<!-- User -->
<g id="node5" class="node"><title>User</title>
<polyline fill="none" stroke="black" points="280,-415 510,-415 "/>
<path fill="none" stroke="black" d="M510,-415C516,-415 522,-421 522,-427"/>
<polyline fill="none" stroke="black" points="522,-427 522,-635 "/>
<path fill="none" stroke="black" d="M522,-635C522,-641 516,-647 510,-647"/>
<polyline fill="none" stroke="black" points="510,-647 280,-647 "/>
<path fill="none" stroke="black" d="M280,-647C274,-647 268,-641 268,-635"/>
<polyline fill="none" stroke="black" points="268,-635 268,-427 "/>
<path fill="none" stroke="black" d="M268,-427C268,-421 274,-415 280,-415"/>
<text text-anchor="middle" x="395" y="-630.4" font-family="Times Roman,serif" font-size="14.00">User</text>
<polyline fill="none" stroke="black" points="268,-621 522,-621 "/>
<text text-anchor="start" x="276" y="-604.4" font-family="Times Roman,serif" font-size="14.00">email :string</text>
<text text-anchor="start" x="276" y="-586.4" font-family="Times Roman,serif" font-size="14.00">encrypted_password :string</text>
<text text-anchor="start" x="276" y="-568.4" font-family="Times Roman,serif" font-size="14.00">reset_password_token :string</text>
<text text-anchor="start" x="276" y="-550.4" font-family="Times Roman,serif" font-size="14.00">reset_password_sent_at :datetime</text>
<text text-anchor="start" x="276" y="-532.4" font-family="Times Roman,serif" font-size="14.00">remember_created_at :datetime</text>
<text text-anchor="start" x="276" y="-514.4" font-family="Times Roman,serif" font-size="14.00">current_sign_in_at :datetime</text>
<text text-anchor="start" x="276" y="-496.4" font-family="Times Roman,serif" font-size="14.00">last_sign_in_at :datetime</text>
<text text-anchor="start" x="276" y="-478.4" font-family="Times Roman,serif" font-size="14.00">current_sign_in_ip :string</text>
<text text-anchor="start" x="276" y="-460.4" font-family="Times Roman,serif" font-size="14.00">last_sign_in_ip :string</text>
<text text-anchor="start" x="276" y="-442.4" font-family="Times Roman,serif" font-size="14.00">created_at :datetime</text>
<text text-anchor="start" x="276" y="-424.4" font-family="Times Roman,serif" font-size="14.00">updated_at :datetime</text>
</g>
<!-- Collection -->
<g id="node6" class="node"><title>Collection</title>
<polyline fill="none" stroke="black" points="324.5,-271 465.5,-271 "/>
<path fill="none" stroke="black" d="M465.5,-271C471.5,-271 477.5,-277 477.5,-283"/>
<polyline fill="none" stroke="black" points="477.5,-283 477.5,-365 "/>
<path fill="none" stroke="black" d="M477.5,-365C477.5,-371 471.5,-377 465.5,-377"/>
<polyline fill="none" stroke="black" points="465.5,-377 324.5,-377 "/>
<path fill="none" stroke="black" d="M324.5,-377C318.5,-377 312.5,-371 312.5,-365"/>
<polyline fill="none" stroke="black" points="312.5,-365 312.5,-283 "/>
<path fill="none" stroke="black" d="M312.5,-283C312.5,-277 318.5,-271 324.5,-271"/>
<text text-anchor="middle" x="395" y="-360.4" font-family="Times Roman,serif" font-size="14.00">Collection</text>
<polyline fill="none" stroke="black" points="312.5,-351 477.5,-351 "/>
<text text-anchor="start" x="320.5" y="-334.4" font-family="Times Roman,serif" font-size="14.00">name :string</text>
<text text-anchor="start" x="320.5" y="-316.4" font-family="Times Roman,serif" font-size="14.00">description :text</text>
<text text-anchor="start" x="320.5" y="-298.4" font-family="Times Roman,serif" font-size="14.00">created_at :datetime</text>
<text text-anchor="start" x="320.5" y="-280.4" font-family="Times Roman,serif" font-size="14.00">updated_at :datetime</text>
</g>
<!-- User&#45;&gt;Collection -->
<g id="edge2" class="edge"><title>User&#45;&gt;Collection</title>
<path fill="none" stroke="black" d="M395,-406.557C395,-400.019 395,-393.598 395,-387.404"/>
<ellipse fill="none" stroke="black" cx="395" cy="-410.793" rx="4" ry="4"/>
<polygon fill="black" stroke="black" points="395,-387.213 399.5,-377.213 395,-382.213 395,-377.213 395,-377.213 395,-377.213 395,-382.213 390.5,-377.213 395,-387.213 395,-387.213"/>
</g>
<!-- Collection&#45;&gt;Expression -->
<g id="edge4" class="edge"><title>Collection&#45;&gt;Expression</title>
<path fill="none" stroke="black" d="M395,-262.816C395,-256.616 395,-250.172 395,-243.597"/>
<ellipse fill="none" stroke="black" cx="395" cy="-266.961" rx="4" ry="4"/>
<polygon fill="black" stroke="black" points="395,-243.173 399.5,-233.173 395,-238.173 395,-233.173 395,-233.173 395,-233.173 395,-238.173 390.5,-233.173 395,-243.173 395,-243.173"/>
</g>
</g>
</svg>
